<svg id="Layer_1" data-name="Layer 1" xmlns="http://www.w3.org/2000/svg" viewBox="0 0 335.17 193.78"><defs><style>.cls-1{fill:#c1cd23;}</style></defs><path class="cls-1" d="M8.43,123.39a30.91,30.91,0,0,1,20-6.75,31.27,31.27,0,0,1,20.17,6.75c6.1,5,8.53,10.88,8.53,20.4v48H48.09V146.55c0-9.09-.67-11.63-4.21-15.5-3.66-4.1-9-6.31-15.29-6.31S17,127,13.29,131.05c-3.54,3.87-4.2,6.41-4.2,15.5v45.28H0v-48c0-9.76,2.33-15.39,8.43-20.4"/><path class="cls-1" d="M250.46,180c-6.65,7.64-14.28,10.64-27,10.64H199.16V117.51h24.39c21.38,0,36.78,15.19,36.78,36.22A40.15,40.15,0,0,1,250.46,180m-28.37-54.81H208.26V183h13.83c9.65,0,15.08-1.89,19.74-6.65a35.37,35.37,0,0,0,9-22.7c0-16.27-12.18-28.46-28.7-28.46"/><path class="cls-1" d="M299.51,190.62h-27V117.51H296.2c7.08,0,11,1.22,14.63,4.54a18.81,18.81,0,0,1,5.75,13.4c0,7.88-4.76,14.19-12.52,16.85,9.75,1.89,15.3,8.76,15.3,18.83,0,11.62-8,19.49-19.85,19.49M304,127.81c-1.89-2-4.2-2.64-9.87-2.64H281.57v23.69h11.86c5.2,0,7.53-.78,10-3.21a13.34,13.34,0,0,0,3.56-9.42,11.88,11.88,0,0,0-3-8.42m-9.87,29.36H281.57V183h12.51c6.67,0,9.2-.68,11.75-2.78,2.33-2,3.88-5.86,3.88-9.74,0-8.53-5.65-13.29-15.63-13.29"/><polyline class="cls-1" points="108.85 30.49 108.79 30.4 108.85 30.49"/><polyline class="cls-1" points="132.79 4.75 124.98 5.21 107.59 52.27 86.88 28.03 78.69 25.99 36.73 0 44.87 26.49 44.89 26.61 23.42 23.59 47.19 69.35 69.75 84.14 0 105.05 96.46 93.74 96.44 77.06 99.74 76.1 124.06 68.99 131.17 16.01 150.53 28.61 132.79 4.75"/><path class="cls-1" d="M118.11,136.43v36.49c0,7.23-2,12-6.52,15.73a24.72,24.72,0,0,1-15.44,5.13,24.47,24.47,0,0,1-15.36-5.13c-4.5-3.7-6.6-8.63-6.6-15.69V137.5l8.32-1.07v34.45c0,6.72.29,8.07,2.91,10.94,2.72,3,6,4.4,10.73,4.4s8-1.35,10.73-4.39c2.63-2.87,2.91-4.23,2.91-11V137.5l8.32-1.07"/><path class="cls-1" d="M158.28,193.12c-16,0-27.6-12-27.6-28.51s11.63-28.41,27.6-28.41,27.51,12,27.51,28.41-11.55,28.51-27.51,28.51m0-50.19c-10.7,0-19.46,9.81-19.46,21.7s8.76,21.77,19.46,21.77,19.37-9.79,19.37-21.77-8.76-21.7-19.37-21.7"/><path class="cls-1" d="M325.11,121.43h3.24a3,3,0,0,1,2.2.79,2,2,0,0,1,.6,1.51v0a2.17,2.17,0,0,1-1.69,2.19l2,2.74h-1.65L328,126.19h-1.51v2.51h-1.38Zm3.18,3.55c.9,0,1.44-.44,1.44-1.13v0c0-.73-.54-1.13-1.44-1.13h-1.8V125Z"/><path class="cls-1" d="M327.86,132.49a7.31,7.31,0,1,1,7.31-7.3,7.32,7.32,0,0,1-7.31,7.3Zm0-13.54a6.24,6.24,0,1,0,6.24,6.24,6.25,6.25,0,0,0-6.24-6.24Z"/></svg>